<?xml version="1.0" encoding="utf-8"?>
<!-- Generator: Adobe Illustrator 24.1.0, SVG Export Plug-In . SVG Version: 6.00 Build 0)  -->
<svg version="1.1" id="Capa_1" xmlns="http://www.w3.org/2000/svg" xmlns:xlink="http://www.w3.org/1999/xlink" x="0px" y="0px"
	 viewBox="0 0 3252.4 1395" style="enable-background:new 0 0 3252.4 1395;" xml:space="preserve">
<style type="text/css">
	.st0{fill:#BD855B;}
</style>
<g>
	<g>
		<path class="st0" d="M940.8,1202.3c-4.2,0.7-7.1,3.6-10.3,5.7c-39.1,26.1-79.3,50.4-121.5,71.3c-44.9,22.2-92.1,36.7-141.4,44.4
			c-22.1,3.5-44.3,5-66.6,5.5c-6.9,0.2-13.3-1.2-16.7-8.5c-4.2-9.1,0.1-17,10.1-17.8c14.9-1.1,29.9-1.9,44.8-3.6
			c44-4.9,86.4-15.3,127.3-32.3c51.7-21.4,99.2-50.2,144.8-82.3c16.1-11.3,32.3-22.3,48.6-33.4c4.5-3,8.3-6.8,11.8-10.8
			c4.2-4.8,3.2-9.2-2.4-12.2c-1.2-0.6-2.5-0.9-3.8-1.2c-16.1-3.8-31.8-3.6-46,6.3c-17.8,12.3-35.5,24.7-53.3,37.1
			c-28.5,19.9-58.8,36.5-90.5,50.7c-34.3,15.4-70.2,25.3-107.1,31.3c-27.6,4.4-55.4,7.4-83.5,6.5c-7.7-0.2-12.7-3.6-15.2-10.3
			c-3.4-9.1,1.5-17.3,11.2-17.7c10.3-0.4,20.6-1.3,30.9-1.3c27.2,0,53.6-5.1,79.9-11.4c15.2-3.7,30.2-8,45-13.1
			c34.9-12,66.5-30.5,97.9-49.5c27.7-16.8,53.4-36.3,79.6-55.2c7-5,7-7.8-0.1-12.5c-7.4-4.9-15.5-7.4-24.6-6.2
			c-11.4,1.6-21.9,5.5-32.2,10.3c-23.3,10.8-45,24.6-67.6,36.8c-28.6,15.4-58.6,27.3-89.8,36c-16.4,4.6-33.2,7.1-50.2,7.7
			c-29.7,1.2-59.3-0.7-88.3-7.7c-20.2-4.8-39.3-12.7-58.2-20.9c-12.8-5.5-25.7-11.1-37.6-18.6c-6.8-4.3-13.3-8.9-18.8-14.8
			c-9.4-10-8.6-18.8,3.1-26.5c12.8-8.5,27.2-12.5,42.4-13.3c24.7-1.3,49.2,0.9,73.6,5.1c22.2,3.8,44.3,4.5,66.3-1.3
			c14.8-4,26.7-11.8,34-25.7c4.1-7.7,2.7-10.3-5.9-10.3c-26,0-51.8-2.2-77.6-6c-20.8-3.1-40.9-8.8-60.7-16
			c-31.9-11.8-64.4-21.9-98-27.4c-25-4.1-49.7-1.1-74,5.8c-18.6,5.3-36.3,13.1-54.6,19.3c-25.8,8.7-49.3,3.6-71.8-9.5
			c-13-7.6-24.9-16.7-35.5-27.4c-16.7-16.8-33.7-33.3-50-50.4c-12.4-13-22.9-27.7-32.9-42.6c-12.7-18.8-25.5-37.5-36.7-57.2
			c-8.2-14.5-9.6-28.9-0.7-43.5c2-3.2,1.3-9.4,5.9-9.4c4.3,0,5,5.7,6.7,9.1c13.4,27.2,27.6,54,45.4,78.7
			c26.2,36.3,56.1,69.4,88.9,99.8c11.2,10.3,22.8,20.5,38.1,25c10.5,3.1,21.1,3.6,31.5,0.2c13.9-4.6,27.7-9.6,41.4-14.7
			c29.5-11,59.9-15.7,91.3-13.2c27,2.1,53.1,8.9,78.9,17.2c15.2,4.9,30.4,9.9,45.7,14.6c13.4,4.1,26.4,3.2,38.6-4.1
			c7.1-4.3,14.1-8.9,21.2-13.3c3.8-2.3,4.1-5,0.8-8c-3.2-2.9-6.6-5.6-9.7-8.6c-18-17-35.4-34.5-48-55.9c-11-18.7-15.6-39.2-9.3-60.5
			c6.8-22.8,26-40.2,57.7-36.4c11.3,1.4,21.6,4.6,30.4,11.4c5,3.8,8.8,3.2,13.5,0.2c8.1-5.3,16.7-9.3,26.4-11.3
			c34-6.8,56.9,16,63.2,42.5c4.3,18-1.2,34.3-8.3,50.2c-6,13.5-14.4,25.5-25,35.9c-17.8,17.5-36.1,34.5-55.6,50.2
			c-7,5.6-14.6,10.5-21.9,15.8c-1.9,1.4-4,2.5-5.5,4.2c-2,2.3-1.4,4.5,1.8,5c2.3,0.4,4.6,0.3,7,0.3c20,0.1,40,0.1,60,0.2
			c3.3,0,6.7-0.1,10,0.3c9.9,1.2,14.6,6,14,15.9c-1.9,30.9-16.1,54.4-43.1,69.8c-14.5,8.3-30.8,10.7-47,12.2
			c-17.7,1.7-35.2-0.7-52.7-3.1c-18.5-2.5-37-4.8-55.6-4.8c-5,0-10,0.2-14.4,2.9c-0.8,3.3,1.9,4,3.8,5c34.9,17.8,71.1,31.6,110.5,36
			c40.3,4.5,78.9-2.1,116.7-15.5c33.4-11.9,63.9-30,94.8-47c16.9-9.3,34-18.4,52.7-23.8c17.6-5.1,34.7-4.6,52,1.3
			c15.2,5.2,26,14.9,31.3,30c2.1,6,5.1,8.6,11.4,8.7c9.3,0.2,17.5,4.2,25,9.4c15.9,11,19.4,30.1,9.2,46.7
			c-5.9,9.6-14.5,16.6-23.5,22.8c-5.9,4-7.9,8.2-5.3,15c2.3,6,2.2,12.4,2.1,18.8c-0.2,10.8-3.8,20.1-11.3,28
			c-12.6,13.4-27.2,24.4-41.8,35.6c-27,20.7-54.8,40.1-84.1,57.4c-43.7,25.8-90.1,44.7-139.8,55.1c-17.3,3.6-34.8,5.6-52.4,7
			c-9.6,0.8-19.2,1.9-28.9,1.9c-38.8,0-77-5.3-115-12.3c-42.7-7.9-84.2-20-124.6-35.9c-53-20.8-102.4-48.1-147.8-82.6
			c-31.7-24-61.5-50.1-88.7-79c-27.3-28.9-49.9-61.5-70.3-95.6c-28.8-48.1-45.5-100.6-55.2-155.4c-4.5-25.2-8.6-50.6-7.7-76.4
			c1.7-48.2,9-95.3,26.7-140.6c14.7-37.6,31.1-74.5,54.7-107.5c21-29.2,43-57.7,69.2-82.6c35.4-33.7,73.5-63.8,117.8-85
			c30.5-14.6,62.6-24.7,96.2-29.1c49.5-6.5,96.9,1.9,141.8,23.5c25.2,12.2,45.9,30.4,64.2,51.6c14.2,16.4,24.7,34.7,30.9,55.4
			c9.6,32.5,9.2,64.4-6.9,95.1c-5.8,11-13.2,20.7-24.5,27c-24.2,13.6-54.3,9.3-75.5-11.1c-16-15.4-26.7-34-32.3-55.4
			c-6.7-25.6-7.4-51.5-0.6-77.1c5.1-19.6,15.7-35.9,33.1-47.1c1.4-0.9,2.8-1.8,4.2-2.7c3.1-2.2,2.5-4.2-0.4-6.2
			c-8.9-6-18.8-10.1-28.9-13.5c-55-18.7-109.3-16.1-163,5.7c-42.4,17.2-81.1,40.6-115.3,70.9c-38.5,34.2-72.2,72.7-98.7,117.3
			C72.1,686,54.6,727.6,43.9,771.9c-5.9,24.3-8.8,49-10,74.1c-3,67.3,11.3,130.9,38.7,192c17.1,38.3,39.8,73.1,66.6,105.2
			c41.1,49.2,88.7,91,143,125.1c34.8,21.9,71.7,39.5,109.9,54.6c46.4,18.3,94.6,29.8,143.7,37.6c34,5.4,68.4,7.3,102.6,4.2
			c51.1-4.6,100.6-16.8,146.3-41c46.9-24.8,91.6-53.1,132.1-87.7c6.8-5.9,13.7-11.7,19.9-18.2
			C941.8,1212.4,942.2,1210.6,940.8,1202.3z M580.3,586.7c0.3-20.3-4.7-39.5-13.2-57.8c-5.4-11.6-13.4-21.4-23.5-29.4
			c-11.5-9.1-23.2-8.4-34.3,1.4c-7.2,6.4-12.1,14.2-15,23.2c-12.4,37.7-4.6,72.2,17.1,104.2c5.9,8.7,14.7,14.7,25.2,16.7
			c13.4,2.5,26.5-5.2,34.4-19C577.9,613.8,580.5,600.6,580.3,586.7z M698.6,861.8c0-19.7-8.7-28.9-26.1-28.6
			c-9.3,0.1-16.5,4.5-23.2,10.2c-5.4,4.6-9,10.7-13.8,15.7c-5,5.2-7.4,5.2-12.2-0.2c-4.2-4.7-7.7-10-11.8-14.8
			c-9.5-11.4-25.5-14.6-37.8-7.6c-11.9,6.7-15.9,18.7-11.4,33.7c3.6,12,10.3,22.2,17.8,32.1c12.6,16.5,28.7,29.5,43.9,43.4
			c5,4.6,6.5,4.7,12,0.5c4.7-3.7,9.2-7.7,13.6-11.7c17.2-15.8,33.2-32.6,44.2-53.6C697.1,874.4,699.4,868,698.6,861.8z"/>
		<path class="st0" d="M773.1,293.1c-1.2-3.9-4.9-5.2-7.8-6.9c-29.9-16.8-61.3-28.6-95.6-33.3c-32.6-4.4-63.6,1.6-94.6,9.9
			c-32.3,8.6-61.1,24.5-89.9,40.6C466,314.2,448,327,428.3,336.8c-21.7,10.8-44.2,18.4-69,17c-10.6-0.6-20.2-3.7-29.2-9.1
			c-10.1-6.1-16.1-15.1-17.8-26.5c-0.8-5.6-3.4-7.2-8.1-7.8c-10.8-1.4-20.6-5.2-29.6-11.3c-19-12.7-21.3-32.5-5.9-49.4
			c7.2-7.9,15.8-14.3,24.5-20.4c8.1-5.6,8.2-5.7,4.1-14.3c-10.8-22.4-6.8-40.3,10.5-57c15.1-14.7,32.1-26.9,49.2-39.1
			c29.5-21.2,59.8-41.1,91.5-59C489.6,36.5,533.2,19.4,579.3,9c22.2-5,44.6-7.2,67.3-8.4c48-2.6,95,3.5,141.7,13.5
			c48.8,10.4,95.2,27.8,140.4,48.5c46.3,21.2,89.1,48.1,129,79.5c46.9,36.9,87.4,79.9,120.3,129.9c33.4,50.8,55.2,106.2,66.5,165.9
			c7.1,37.5,10,75.4,7.4,113.3c-3.4,48.1-14.3,94.7-33.2,139.3c-20.2,47.7-48.1,90.4-81.8,129.6c-9.6,11.1-19.7,21.7-29.6,32.5
			c-11,12-23.9,22.2-36.4,32.7c-32.7,27.2-68.4,49.7-106.4,68.7c-5.7,2.8-11.4,5.6-18,5.5c-7.4-0.1-12.5-3.2-14.8-9.5
			c-1.9-5.4,0.1-10.8,6.6-15.2c4.1-2.8,8.7-4.9,13.1-7.2c29.4-15,57.7-31.9,84.1-51.9c28.8-21.8,54.1-47.3,78.1-74.2
			c25.7-28.8,46.5-60.9,64.6-94.7c17.4-32.5,28.4-67.4,36.2-103.4c7.9-36.8,9.5-74,7.5-111.3c-1.6-29-7.2-57.4-15.5-85.3
			c-13.3-44.3-30.7-86.6-57.3-124.8c-25.4-36.6-55.6-68.8-88.7-98.5c-39.7-35.7-83.5-65.2-131.2-88.7c-39.2-19.3-80-34.6-122.4-45.9
			c-28.7-7.7-57.6-13.7-87.1-17c-30.2-3.3-60.4-3.5-90.7-1.2c-62,4.6-117.5,28-170.9,57.6c-37.9,21.1-73.2,46.1-107.4,72.8
			c-9.2,7.2-18.6,14-26.4,22.8c-3.7,4.2-4.7,8.6-2.4,13.8c1.6,3.5,4.1,4.3,7.3,2.4c2-1.2,3.7-2.8,5.7-4.1
			c26-17.4,51.4-35.7,78.6-51.2c51.2-29.1,104-54.1,162.1-66.5c21.5-4.6,43.1-8.4,65.1-9.7c8.6-0.5,17.2-1.6,25.9-1.5
			c9.8,0.1,15.8,4.9,16,12.6c0.2,8-6.2,14.7-15.3,15.3c-9.3,0.6-18.6,1.3-27.9,1.8c-27.2,1.4-53.3,8-79.2,15.6
			c-35.9,10.6-70.6,24.2-103.6,41.9c-34.1,18.3-66.5,39.3-98.1,61.7c-10.6,7.5-20.9,15.3-31.9,22.2c-10.9,6.9-20.2,16.2-30.2,24.4
			c-0.8,0.6-1.4,1.4-2.1,2.2c-5.9,7.1-4.9,11.8,3.8,15.1c15.1,5.9,29.5,3.6,43-4.7c14.8-9,28.3-20,42.2-30.3
			c49-36.5,102-65.6,159.8-85.3c33.7-11.5,68.3-20.2,104.4-21c10.3-0.2,20.6-1.4,30.9-1.4c2.3,0,4.7-0.1,7,0.4
			c5.3,1.1,10.5,6.7,11.1,11.7c0.7,6.1-2.3,10.2-7.1,13.3c-3.2,2.1-6.8,2.4-10.5,2.7c-15.9,1.5-31.9,1.4-47.8,3.6
			c-36.8,5.1-72.4,14.6-106.6,29.1c-52.2,22-99.8,52-145.1,85.7c-9.9,7.4-19.7,14.8-29.2,22.6c-9.1,7.4-8,11.7,2.8,15.8
			c14.8,5.6,28.9,2.5,42.9-2.5c17.3-6.3,33.3-15.3,48.8-25.1c24-15.1,48-30.1,73.8-42c29.5-13.6,60.7-21.8,92.6-27.3
			c10.6-1.8,21.2-2.7,31.8-3c22.7-0.6,45.1,2.4,67,9.1c17.9,5.5,35.2,12.3,52,20.5c18.2,8.9,36.4,18.1,53.3,29.4
			c11.6,7.8,12.2,16,2.4,26.3c-3.3,3.4-7.1,6-11.4,7.9c-10.8,4.6-22.1,7.3-33.9,7.9c-26.7,1.3-53.2-1.1-79.6-5.4
			c-12.1-2-24.4-3.4-36.8-2.9c-20.7,0.7-38.1,8.5-52.2,23.7c-4,4.2-6.3,9.4-8.3,14.7c-1.8,4.5-0.7,5.9,4.4,6.2c3.3,0.2,6.7,0.1,10,0
			c51.2-1.7,100.8,6.9,149.2,23.2c26.5,8.9,53.4,16.5,81.2,21c27.9,4.5,55.2,1.4,81.9-7c14.9-4.7,29.4-10.7,44.1-16.1
			c9.1-3.3,18.5-5,28.3-5.4c17.9-0.7,33.7,4.9,47.4,15.6c33.7,26.3,65,55.1,91.9,88.5c12.1,15,24.1,30.2,35.4,45.9
			c9.4,13.1,16.3,27.4,22.8,42.1c5.6,12.6,0.9,23.4-5.6,33.9c-1.8,2.9-4.4,3-6.6,0.4c-1.9-2.3-3.5-4.9-4.9-7.5
			c-16.2-31.1-34.8-60.7-57.1-87.8c-19.8-24.3-41-47.3-64.8-67.8c-8.1-6.9-15.8-14.3-23.8-21.4c-14.4-12.8-30.4-16.9-49-10.2
			c-18.2,6.6-36.4,13-54.9,18.5c-38.9,11.7-78.2,11.3-117.4,1c-29.9-7.9-59.6-17-89.5-25.1c-35.8-9.7-72.4-14.6-109.6-13.9
			c-9.3,0.2-18.7,0.4-28,0.1c-11.2-0.4-16.8-6.6-16.8-17.7c-0.2-32.5,14.6-55.7,42.9-71.2c22.5-12.3,46.5-12.3,71-10.6
			c18.3,1.2,36.3,4.5,54.6,5.6c11,0.6,21.9,1.6,32.9,1.4C767.8,294.7,770.6,295.6,773.1,293.1z"/>
		<path class="st0" d="M0.1,566.8c-1.1-56.7,9.3-113,27.5-168.2c14.6-44.2,34.7-85.9,60-124.9c15.6-24,33.6-46.2,52.6-67.8
			c33.5-38.2,73.2-68.8,114.9-97c13.8-9.3,28.2-17.7,43.3-24.9c2.1-1,4.2-2.1,6.5-2.6c8.6-1.8,16.1,4.6,15.6,13.4
			c-0.4,7.7-4.7,13-11,16.8c-13.4,8-27.1,15.7-40.3,24c-20.3,12.8-39.3,27.3-57.6,42.9c-16.3,13.9-31.3,29-46.1,44.3
			c-28.1,29.2-51.3,62.1-70.7,97.6c-14.6,26.6-27.6,54.1-37.3,82.9c-10.9,32.2-19.4,65-23.5,98.9c-3.1,25.9-4.1,51.8-3.3,77.8
			c0.4,13.6,1.9,27.2,3.2,40.8c0.8,8.4,0.5,16.7-2.8,24.6c-4.1,9.8-8.5,19.5-12.8,29.3c-0.7,1.6-1.4,3.4-3.2,3.5
			c-2.5,0.2-3.1-2.2-3.7-4c-4.9-14.6-6.6-29.8-8.6-45C-0.1,609,0.3,588.7,0.1,566.8z"/>
		<path class="st0" d="M1245.8,701.6c3.3,12.1,3.2,23.5,4.4,34.6c1.9,17.2,4,34.3,5.1,51.6c1.4,24,2,47.9-0.3,71.8
			c-2.1,21.9-4.7,43.6-8.3,65.3c-5.2,31.7-13.8,62.4-24.7,92.5c-14,38.7-32.7,75.2-55.5,109.4c-31.9,47.6-69.7,89.9-114.2,126.2
			c-24.8,20.3-51.2,38.3-79.1,54.1c-4.3,2.5-8.1,5.9-12.9,7.6c-7.2,2.6-13.5,0.3-18-6.6c-3.5-5.4-2.4-12,3.7-16.8
			c6-4.8,12.4-8.9,18.9-13c23.2-14.4,46-29.5,67.1-46.9c26.8-22.1,51.4-46.4,73.6-73.1c25.3-30.3,47.4-62.7,65.5-97.7
			c14.1-27.2,25.1-55.8,33.3-85.5c8.4-30.2,15-60.7,19.2-91.8c1.6-11.5,2.4-23.1,3-34.8c1-20.6,0.1-41.2-0.5-61.8
			c-0.3-9.6-1.8-19.2-3.1-28.7c-0.8-5.8-0.9-11.4,1.6-16.7c5.8-12.4,11.7-24.7,17.7-36.9C1242.6,703.7,1243.7,703.2,1245.8,701.6z"
			/>
		<path class="st0" d="M848.5,934.5c0.7,11.8-1.6,23.9-4.5,35.9c-1.5,6.2-3.7,12.1-6.9,17.6c-4.3,7.3-9.5,9.2-16.7,6.3
			c-7.7-3.2-10.7-8.7-7.9-16.7c4.3-12.4,6.8-25.1,7.5-38.1c1.6-28.9-9.7-53.4-27.5-75.1c-25.9-31.7-52-63.2-77.8-95
			c-11.7-14.4-24.6-28.1-40.8-37.9c-9.9-5.9-20.3-9.2-31.8-10.7c-37.9-5-65.6,12.6-89,39.4c-24.5,28.1-46.7,58.1-72,85.6
			c-12.4,13.4-23.1,28.4-33.1,43.7c-6.3,9.7-10.6,11.5-23.8,5.5c-5.5-2.5-5.9-4.6-3.4-10.4c7.6-17.6,17.6-33.8,29.9-48.3
			c27.7-32.4,54.8-65.2,82.2-97.8c21-25,47.6-42.6,80.8-48c19.5-3.2,38.5-1.1,56.9,6.1c24.3,9.4,43.3,25.7,60.1,45.1
			c17.2,19.9,32.1,41.7,49.4,61.5c13.4,15.3,27.7,29.8,39.5,46.4C837.5,874.6,849.6,902,848.5,934.5z"/>
		<path class="st0" d="M725.4,673.9c-30.7-0.8-48.2-11.4-59.9-32.1c-12.7-22.5-16.8-46.3-13.9-72.1c2.8-25.1,9.7-48.2,24.8-68.6
			c10.9-14.8,24.3-26.6,42.4-31.7c19.7-5.6,37.6-2,52.8,12.2c14.9,14.1,22.7,32.2,26.1,51.8c5.6,32.7,1.1,64.4-14.7,93.9
			c-6.8,12.6-15.1,24.3-26.6,33.3C745.1,669.4,732.7,674.4,725.4,673.9z M680.2,581.8c-0.3,12.2,1.7,23.8,5.8,35.3
			c3,8.4,7.8,15.4,14.4,21.2c8.9,7.7,18.7,9.3,29.6,4.3c8.8-4,15.4-10.4,20.7-18.2c16.3-23.9,21.2-50.7,18.9-78.9
			c-1-11.5-3.1-23.1-8.9-33.5c-9.6-17.2-26.7-21.5-43.2-11c-3.4,2.1-6.5,4.6-9.3,7.4C687.8,528.7,680.9,554.1,680.2,581.8z"/>
		<path class="st0" d="M324.2,682.5c-0.9-14.7,2.4-29,11.2-42c15.7-23.2,42.4-31.5,68.5-21.6c21.2,8.1,36,23.3,48.1,41.8
			c12.8,19.5,18.4,41.5,19.6,64.2c1.1,19.3-4.5,37.6-16.4,53.4c-11.1,14.8-35.3,22.2-54.2,17.1c-25.5-7-44-23-57.6-45
			C330.7,729.9,323.2,707.7,324.2,682.5z M442.4,729.7c-1.2-16.7-4.2-33.1-12.2-48c-7.1-13.3-16.6-25-30.2-32.5
			c-8.7-4.8-17.9-7.2-27.7-3.2c-10.6,4.4-15.5,13.2-17.9,23.7c-1.9,8.5-1.5,17-0.4,25.8c2.6,20.2,10.7,37.6,24.2,52.6
			c6.8,7.5,14.4,13.8,24.2,17.1c14.7,5,26.5,1.4,33.8-10.7C440.8,746.8,442.8,738.7,442.4,729.7z"/>
		<path class="st0" d="M934.6,690.6c-1.4,26.8-12.3,57-36.6,81c-13.8,13.7-30.3,23.7-51.1,24.1c-19.7,0.3-34.8-8.2-45.9-23.6
			c-13.4-18.5-16.4-39.4-13.2-61.7c4.1-28.6,18.1-51.8,38.3-71.7c11.2-10.9,24.4-18.3,39.7-21.8c22-5,43.1,3,56.1,21.4
			C931,651.1,934.8,664.7,934.6,690.6z M818.5,725.2c0,4.3-0.4,8.7,0.1,13c1.2,9.5,4.5,18.2,12.4,24.2c9.4,7.1,21.7,6.9,33.6-0.7
			c23.8-15.3,34.5-38.7,39.7-65.4c1.9-9.9,2.4-19.7-0.1-29.6c-3.7-14.7-17.4-29.9-38.8-20c-3.9,1.8-8,3.6-11.3,6.3
			C831.3,671.6,817.8,694.9,818.5,725.2z"/>
	</g>
	<g>
		<g>
			<g>
				<path class="st0" d="M1423.5,494.9c-3.2-1.2-4.9-3.4-5.2-6.8c0.1-43.5,0.3-87,0.3-130.6c0-43.1-0.2-86.2-0.3-129.2
					c0.8-5,4.2-5.8,8.6-6c39.2-1.6,78.4-3.5,117.5,0.7c43.2,4.7,74.9,28.4,85.6,67.7c15.9,58.4-14.4,118.8-87.5,125.8
					c-17.1,1.6-34.2,2.7-51.5,2.4c-9.2-0.2-9.2,0.5-10,9.8c-1.5,18.5-1.3,37-1.1,55.5c0.1,6.5-2,10.1-8.8,10
					C1455.3,493.6,1439.4,492.4,1423.5,494.9z M1480,320.9C1480,320.9,1479.9,320.9,1480,320.9c-0.1,11.9-0.1,23.8-0.1,35.7
					c0,4.2,0.4,8.3,6,8.2c16.3-0.4,32.6-0.2,48.8-1.8c16.1-1.6,27.7-10.8,33.4-26.3c11-30-7-58.2-39-60.3
					c-13.2-0.9-26.4-0.2-39.6-0.5c-6.7-0.2-9.6,2.7-9.6,9.3C1480.1,297.1,1480,309,1480,320.9z"/>
				<path class="st0" d="M2553.1,432.5c-16.5,36-44.5,57.5-83,65c-31.1,6-60.8,1.5-87.7-15.4c-29.8-18.7-44.4-46.8-47.1-81.5
					c-0.5-6.1-0.4-12.3-0.5-18.5c2.5-20,8.2-38.8,20.3-55.3c17.2-23.3,40.7-36.5,68.7-41.1c34-5.6,66.1-0.3,93.9,21.7
					c21,16.7,32.5,39.2,37.8,65c1.7,8.2,3,16.5,2.6,25c-0.5,10.9-0.6,11.3-11.1,11.5c-6.6,0.2-13.3,0-19.9,0
					c-39.3,0-78.6-0.1-117.9-0.1c-4.4,0-8.8-0.7-13,0.9c1.3,20.7,18.1,38,40.2,40.8c19.6,2.5,37.9-1,52.9-15.1
					c3-2.8,5.9-5.4,10.2-5.4c16.8,0.1,33.6,0.1,50.3,0.3C2550.8,430.7,2552,431.8,2553.1,432.5z M2394.2,370.2
					c3.7,0.6,5.4,1.1,7.1,1.1c29.5,0.1,58.9,0.2,88.4,0c10.3-0.1,11.3-2.3,6.2-11.8c-11.4-21.2-36.5-32.4-60.8-26.7
					C2415.3,337.5,2401.8,349.2,2394.2,370.2z"/>
				<path class="st0" d="M3180.9,493.3c-10.6,2.2-21.2,4.5-31.8,6.7c-6.2-1-12.4-1.2-18.5,0.3c-12.5-2.2-25.1-3.9-37.3-8.2
					c-37.7-13.3-60.1-39.9-68.6-78.6c-1.1-5.1-1.9-10.4-2.8-15.6c0.3-10.6,1.3-21.1,3.7-31.4c8.6-37.3,31.5-62.3,67.4-75.1
					c32.6-11.6,64.7-9.9,96.7,3.2c49.8,20.5,72.3,77.9,59,124.8c-9.1,32.1-27.9,55.4-58.4,69.2
					C3187.1,490.1,3184,491.8,3180.9,493.3z M3137.5,448.1c32.8,0.1,56.1-23.6,56.3-57.2c0.2-31.5-24.2-55.9-56.3-56.1
					c-31.1-0.2-57.3,25.1-56.4,56.2C3082.1,425.8,3103.4,447.6,3137.5,448.1z"/>
				<path class="st0" d="M1954.2,499c-18,1.2-35.1-2.9-51.5-9.7c-33.9-14.2-54.7-39.8-61.5-75.7c-10.1-53.7,14.5-99.5,59.8-118.8
					c43.1-18.3,85.8-15.2,124.8,11.4c26.6,18.1,40.3,44.9,42.2,77.3c1.1,18.8-1.2,37.1-9.4,54.2c-18.4,38.2-50.5,56.2-91.2,61.3
					C1963.1,499.4,1958.6,499,1954.2,499z M2009.4,390.4c-0.1-29-18.6-54.6-55.3-55.1c-36.1-0.5-57.1,27.6-56.4,57.1
					c0.8,33,23.2,55.7,56.2,55.8C1986.7,448.2,2009.6,424.4,2009.4,390.4z"/>
				<path class="st0" d="M2317.3,292c-2.1,3.2-3.3,6.7-3.8,10.4c-9.2,17.7-15.6,36.5-23,54.8c-21.1,52.4-41.8,104.9-62.8,157.4
					c-3.1,7.8-6.9,15.3-10.9,22.7c-9.6,17.9-24.8,28.5-44.5,32.2c-15.6,2.9-31.5,3.9-47.4,3c-8.6-0.5-9.6-1.5-9.8-10.5
					c-0.3-11,0.1-22.1-0.2-33.1c-0.1-6.3,2.7-8.7,8.7-8.6c7.5,0.1,15,0.2,22.5-0.2c17.1-0.9,29.9-12.9,32.4-29.5
					c0.6-4.3-1-7.8-2.6-11.4c-10.2-22-20.5-44-30.7-66c-17.9-38.4-35.8-76.8-53.6-115.2c-0.9-1.9-2.3-3.8-1.4-6.8
					c2.3-2.9,6.1-1.7,9.4-1.7c14.1-0.2,28.3,0.3,42.4-0.3c8.3-0.4,12.8,2.7,15.9,10.4c11.3,27.3,23.1,54.4,34.9,81.5
					c4.3,10,8.4,20.2,14.3,29.3c4.8-0.6,4.8-4.3,5.7-7c12-33.2,23.8-66.4,35.7-99.7c5.1-14.3,5.1-14.3,20.7-14.3
					c11.9,0,23.8-0.1,35.8,0.1C2309.1,289.3,2313.8,288,2317.3,292z"/>
				<path class="st0" d="M2812.2,413.9c-5.2,15.5-10.8,30.7-20.9,43.9c-17.3,22.5-40.7,34.6-67.9,39.9c-31.1,6-60.5,0.6-87.5-16.1
					c-25.9-16-40.2-40.1-46-69.5c-0.6-3-0.3-6.2-2.2-8.9c0.4-15,1.2-29.9,5.6-44.5c10.3-33.8,32.6-56.1,65.4-67.8
					c34.2-12.2,67.9-9,100,7.5c24.7,12.8,40.9,33.1,48.8,59.9c2.4,8.2,1.5,9.7-6.6,10c-13.2,0.4-26.5,0-39.7,0.3
					c-6.2,0.1-9.5-3.1-12.7-7.9c-7.9-11.8-18.8-19.6-32.5-23.6c-34.2-9.9-67.2,14.2-68.4,49.8c-0.5,15.9,2,30.9,12.8,43.3
					c23.3,26.9,68.3,23.3,87.7-7.8c5.6-8.9,11.3-11.9,21.1-11.2c10.6,0.7,21.2,0.1,31.8,0.1C2804.9,411.4,2809,410.5,2812.2,413.9z"
					/>
				<path class="st0" d="M2990.1,493.7c-13.2,0-26.3,0.2-39.5,0c-35.9-0.6-62.5-15-74.8-50.7c-4.1-25.6-2.3-51.4-2.7-77.1
					c-0.1-5.2-0.5-10.5-0.7-15.7c0.5-12.5,0.5-12.6-11.3-12.6c-6.5,0-13.1-0.9-19.5,1c-5.7-0.7-8.7-3.8-8.8-9.6
					c1-7.9,1-15.9,0.1-23.8c1.2-15.7,1.2-15.7,17.5-15.9c2.6,0,5.3,0,7.9-0.2c14.3-0.8,19.8-5.2,22.7-19.1
					c1.7-7.7,2.6-15.6,4.1-23.4c1.9-9.9,2-10,11.7-10.1c11.4-0.2,22.9-0.1,34.3-0.1c0.5,10.5,0.9,21.1,1.4,31.6
					c-1.5,21.2-1.5,21.2,18.8,21.2c8.8,0,17.6-0.1,26.3,0.1c9.4,0.2,10.1,0.8,10.2,9.5c0.2,10.1-0.3,20.2-0.1,30.3
					c0.1,6.3-2.7,8.7-8.7,8.4c-3.5-0.2-7,0-10.3,1.5c-9.5-0.1-19.1-0.1-28.6-0.2c-6.1-0.1-9,2.4-7.4,8.7
					c-1.7,21.9-1.2,43.9-0.1,65.8c0.9,18.4,10.9,27.4,29.6,29.1c5.2,0.5,10.5,0.2,15.8,0.3c10.9,0.1,10.9,0.1,13.7,10.8
					c-1.9,9.7-1.6,19.4-0.5,29.2C2991,486.5,2990.5,490.1,2990.1,493.7z"/>
				<path class="st0" d="M1673.9,294.6c1.3-3.9,4-5.4,8-5.4c9.7,0.1,19.4,0.1,29.1-0.1c6-0.1,8.5,2.9,9.8,8.4
					c1.2,5,1.7,10.4,4.4,14.2c2,1.4,3.4,1.1,4.3,0.2c15.9-17.3,36.6-21.8,58.7-22.5c5.3-0.2,10.6-0.1,15.9-0.2
					c4.3,0,6.5,2.2,6.5,6.5c0,13.2-0.1,26.5,0,39.7c0,5.8-3.1,7.5-8.3,7.5c-7.9,0-15.8,0.5-23.7,1.2c-30.8,2.7-44.5,28.3-44.6,50.2
					c-0.1,24.3-0.3,48.5-0.4,72.8c0,4.4,0,8.8,0,13.2c-0.1,12.3-0.1,12.3-13.1,13.8c-14.1-1-28.3-1-42.4,0.1c-1.5-1.2-3-2.3-4.5-3.5
					c2.2-16.8,1.9-33.6,0.7-50.4c1.3-36.2,1.3-72.5,0-108.7C1675.3,319.3,1675.4,307,1673.9,294.6z"/>
			</g>
			<g>
				<path class="st0" d="M1635.7,784.9c0-40.2,0-80.4,0-120.6c0-2.2,0.1-4.4,0-6.6c-0.3-5.4,1.8-8.2,7.6-8.3
					c9.7-0.2,19.4-1.2,29.1-1.3c29.1-0.3,58.4-1.2,87.4,2c39.8,4.4,71.3,22.3,84.8,61.8c13.1,38.2,7.8,74.6-21.6,104.3
					c-17.3,17.5-39.7,26.2-64.3,27.7c-17.2,1.1-34.4,1.3-51.6,2c-9.2,0.4-9.8,0.6-9.9,9.9c-0.2,18.1,0,36.2-0.2,54.3
					c-0.1,10.3-0.3,10.5-10.4,10.6c-13.2,0.2-26.5,0.1-39.8,0c-10.8-0.1-11-0.2-11-11.2C1635.7,868,1635.8,826.4,1635.7,784.9
					C1635.8,784.9,1635.7,784.9,1635.7,784.9z M1697,746.5c0,0,0.1,0,0.1,0c0,11.5-0.2,23,0.1,34.5c0.2,9.3,0.8,10.1,9.6,10.2
					c13.7,0.1,27.4-0.2,41.1-0.4c6.7-0.1,13.1-2.1,18.9-5.4c19.2-11.1,22.8-28.1,19.4-49.3c-2.8-17.8-18.6-30.8-38.7-32.3
					c-13.6-1-27.4-0.7-41.1-0.6c-8.8,0.1-9.2,0.6-9.4,10.3C1696.8,724.4,1697,735.5,1697,746.5z"/>
				<path class="st0" d="M2031.5,898.9c-18.9,14.3-37.9,23.2-59.4,25.8c-22.2,2.7-43.3-0.7-62.5-12.1c-25.4-15.2-31.1-37.9-27-65.2
					c3.6-23.4,23.8-41.6,48.8-46.2c16.7-3,33.4-2.2,50.2-2.3c11.9-0.1,23.9-0.1,35.8,0.1c5.7,0.1,8-2.5,7.7-8.1
					c-0.5-9.2-3.5-17.3-10.4-23.6c-17.3-15.9-47.4-14.1-61.3,4.7c-5.3,7.1-10.7,9.2-18.8,8.8c-11-0.5-22.1,0-33.1-0.3
					c-9.1-0.3-10.2-1.8-7.7-10.4c7.3-25.1,23.2-42.6,47.7-51.3c33.5-11.9,67-10.9,98.9,5.4c24,12.2,37.7,32.5,41.1,59.5
					c3.6,29.5,1.4,59.1,1.8,88.7c0.2,13.2-0.1,26.5-0.2,39.8c0,5.9-2.6,9-8.8,8.9c-9.3-0.2-18.6-0.2-27.8,0.1
					c-5.9,0.2-8.8-2.7-10.3-8.1C2035.1,908.7,2033.5,904.6,2031.5,898.9z M1990.7,836.3c-10.1,0.6-23-1.8-35.3,2.8
					c-10.3,3.9-15.5,11-15.5,20.5c0.1,9.8,5.1,16.3,15.9,20.1c16.9,5.9,33,3.4,47.9-6.1c10.7-6.9,17.7-16.9,20.4-29.6
					c1-4.9-0.5-7.7-5.8-7.7C2010,836.3,2001.7,836.3,1990.7,836.3z"/>
				<path class="st0" d="M2778,921.7c-3.4-0.4-6.8-0.8-10.2-1.3c-1.8-6.7-2.5-13.8-6.6-19.7c-5.1,0.6-8.1,4.1-11.8,6.5
					c-30.6,19.6-63,23.2-97.5,11.6c-42-14.2-52.8-62.9-28.8-95.5c9.3-12.7,23-19,38.1-22.1c8.2-1.7,16.5-2.6,25-2.5
					c19.4,0.2,38.9,0.2,58.3,0c9.1-0.1,10-1.3,9.7-9.9c-0.4-9.3-4.1-17.1-11.3-23.1c-17.8-14.7-46.6-12.1-60.4,6.5
					c-4.9,6.7-9.9,8.8-17.6,8.5c-11-0.5-22.1,0-33.1-0.3c-10.8-0.2-11.4-1.1-7.9-11.8c7.9-23.9,22.7-41.4,46.9-49.9
					c32.2-11.4,64.1-10.7,95.4,3.3c29,13,44.4,36.7,45.6,67.6c1.6,40.6,0.4,81.2,0.7,121.8c0,6.8-2.5,9.6-9.3,9.5
					C2794.7,920.8,2786.3,921.4,2778,921.7z M2722.1,836.3C2722.1,836.3,2722.1,836.3,2722.1,836.3c-7.5,0-15,0-22.5,0
					c-6.3,0-12.3,1.3-17.9,4.2c-7.6,3.9-12.4,9.9-12.5,18.8c-0.1,9,4.8,14.7,12.5,18.6c19.2,9.7,47.9,3.9,61.7-12.7
					c4.3-5.2,7.2-11.1,9.2-17.5c2.8-8.9,1.2-11.1-8.1-11.4C2737.1,836.1,2729.6,836.3,2722.1,836.3z"/>
				<path class="st0" d="M2971.4,925.6c-3.5,0.3-7,0.7-10.5,1c-4.4-0.6-8.9-0.8-13.2,0.8c-12-2.1-24.4-1.3-36.3-4.8
					c-26.7-7.8-46.8-22.9-56.6-49.9c0-0.9,0.1-1.8,0-2.6c-1.9-15.5-1.9-15.5,14.4-15.6c11,0,22.1,0.2,33.1-0.1
					c5.1-0.1,7.6,2,9.8,6.8c8.9,19.8,36.6,27.8,54.8,16.2c11.2-7.1,12.1-18.9,1.9-27.5c-5.5-4.6-12.1-7.3-19-8.9
					c-12.5-2.9-25-5.4-37.4-8.6c-11.1-2.9-21.6-7-31.4-13.5c-21.2-14.1-27-34-23.6-57.6c3.1-21.3,16.5-34.7,35.9-42.2
					c21.4-8.4,43.8-9.6,66.5-7.2c3.9,0.4,7.9,0.9,11.8,1.3c6.2,1.9,12.3,3.8,18.5,5.7c21.3,10.5,35.2,27,40.5,50.3
					c0.2,1.8,0.4,3.5,0.6,5.3c-2.9,3.9-7.3,4.5-11.6,4.5c-12.5,0.2-25.1,0.1-37.7,0.2c-3.8,0-6.8-1.1-8.4-4.8
					c-7.9-18.6-35.9-26.5-52-14.6c-10.6,7.8-10.1,20.5,1.4,26.8c9.3,5,19.5,7.9,30.1,9c8.7,2.2,17.4,4.5,26.1,6.7
					c8,3.3,16,6.6,24,9.9c2.4,1.9,4.9,3.7,7.3,5.6c6.4,4.8,12.1,10.3,16.4,17c16.7,26.2,7.3,60.5-20.9,77.5
					C2995,919.1,2983.1,922.1,2971.4,925.6z"/>
				<path class="st0" d="M2529.1,766.3c-12.9-2.6-13.2-2.4-12.3,8.9c0.2,1.7,0.3,3.3,0.5,5c-2.9,19.7-1.6,39.6-0.9,59.4
					c0.6,19.1,10.7,28.7,29.9,30.2c6.6,0.5,13.2,0.3,19.8,0.2c5.2-0.1,8.5,1.5,8.4,7.4c-0.2,12.3-0.2,24.7-0.3,37
					c0,4.3-2.2,6.5-6.5,6.5c-19.3-0.1-38.8,1.8-57.9-3.2c-32.4-8.4-51-32.2-52.4-67.6c-0.6-15.4-0.3-30.8-0.4-46.3
					c0-6.2,0.1-12.3-1.6-18.4c0.1-3,0.4-6.1,0.2-9.1c-0.4-9.5-0.8-10-10.8-10.3c-8.2-0.2-16.5,0-24.8,0.1c-5-4.2-1.8-10.2-3.5-15.2
					c0-1.8,0-3.5,0.1-5.3c1.3-6.6,0.2-13.2,0.1-19.8c-0.1-6.2,2-10,9.3-9.4c6.1,0.5,12.3-0.1,18.5-0.3c10.1-0.4,16.4-5.3,18.9-15.3
					c1.9-7.7,3.7-15.4,4.6-23.3c1.5-13.7,2-14.4,15.2-13.8c11.3,0.5,22.9-2.9,33.8,2.3c-1.5,9.7-2,19.4-0.8,29.2c0,2.7,0,5.3,0,8
					c0,2.7,0.1,5.4,0.1,8.1c-0.4,5.3,3.4,5.2,6.9,5.2c12.2,0,24.4-0.1,36.6,0c4.2,0,8.8-1,12.4,2.5c0.2,9.7,0.5,19.5,0.7,29.2
					c-2.7,15.2-2.7,15.2-19.3,16.6c-2.1,0.2-4.1,0.9-6.2,1.4C2541.3,766.3,2535.2,766.3,2529.1,766.3z"/>
				<path class="st0" d="M2274.3,920.4c-1.7,0.4-3.5,0.9-5.2,1.3c-6.5-0.3-13.1-1-19.6-0.8c-21.6,0.7-42.6-1.9-62.3-11.4
					c0,0,0.1-0.1,0.1-0.1c-18.9-15.3-29.5-34.7-29.9-59.3c-0.2-12.4-0.2-24.7-0.2-37.1c0-6.6,0-13.2-1.6-19.7
					c0.1-6.1,0-12.3,0.4-18.4c0.4-6.7-2.8-9.8-9.2-9.9c-9.6-0.1-19.3-0.1-28.9-0.1c-0.5-2.9-1-5.8-1.5-8.8c1.7-9.7,1.7-19.4,0-29.1
					c2.7-10.3,2.7-10.3,12.5-10.6c5.2-0.1,10.5-0.2,15.7-0.4c10.1-0.3,16.4-5.4,19-15c2.4-8.8,4.9-17.7,4.4-27
					c0.6-3.4,1.2-6.8,1.8-10.2c3.1-0.2,6.2-0.4,9.3-0.6c7.9,0,15.9-0.1,23.8-0.1c4.8,1,11-1.2,13.3,5.7c-0.7,15-0.6,30,0.1,45
					c2.3,3.9,6.1,2.6,9.4,2.7c11.3,0.2,22.6,0,34,0.1c4.2,0,8.8-1,12.4,2.5c0,9.7,0,19.4,0,29.1c-0.2,3-0.6,6-0.4,9
					c0.4,5.8-3.1,7.4-7.8,8.1c-12.7-1.6-25.5-0.5-38.3-0.5c-9.2,0-9.6,0.5-9.6,10c0,21.2-0.1,42.3,0.5,63.5
					c0.6,20.4,8.3,28.1,28.9,30.1c9.5,3.2,19.3,0.7,28.9,1.8c0.2,14.1,0.4,28.2,0.6,42.3C2274.7,915.2,2274.5,917.8,2274.3,920.4z"
					/>
				<path class="st0" d="M2380.2,912.6c-0.5,3.8-0.2,8-5,9.5c-4.6-1.7-9.5-1.3-14.2-1.3c-10,0-20.1,0.1-30.1,0
					c-10.5-0.1-10.7-0.4-10.9-11.2c-0.2-10.5-0.3-20.9-0.4-31.4c0-32.7-0.1-65.4-0.1-98.1c0-6.2,0-12.4,0.1-18.6
					c0.2-11.9,0.6-23.8,0.4-35.7c-0.1-6.7,2.2-9.6,9.2-9.4c13.6,0.3,27.3-0.1,41,0.1c9.8,0.1,10.1,0.4,10.1,10.8
					c0.1,30,0,59.9,0,89.9c0,5.3,0.3,10.6,0.4,15.8C2380.4,859.6,2380.3,886.1,2380.2,912.6z"/>
				<path class="st0" d="M2349.5,687.6c-21-0.2-37.7-16.9-37.8-37.9c-0.1-19.7,17-36.3,37.6-36.5c22-0.1,39.5,16.7,39.2,37.8
					C2388.3,671.6,2370.9,687.8,2349.5,687.6z"/>
			</g>
		</g>
		<g>
			<path class="st0" d="M2494.3,1171.3c-11.9,0.1-23.8,0.5-35.6,0.3c-9.9-0.1-11-1-11.1-10.3c-0.3-24.6-0.3-49.3-0.1-73.9
				c0.1-8.9,1.2-10.2,9.8-10.3c13.1-0.1,26.3-1.3,39.4,1.5c19,4.1,32.3,15,36.7,33.7c4.5,19.3-0.3,36.7-17,49.5
				c-2.1,1.6-4.1,3.2-6.2,4.8C2504.9,1168.2,2499.6,1169.7,2494.3,1171.3z M2470.1,1124.2c0,0-0.1,0-0.1,0c0,4.4,0,8.8,0,13.2
				c0.1,14.4,0.5,14.8,14.9,13.8c2.6-0.2,5.3-0.3,7.8-1c17.7-4.6,25.6-24,16.2-39.8c-5.9-10-24.3-16.3-35.1-12.3
				c-3.1,1.2-3.6,3.6-3.7,6.2C2470,1111,2470.1,1117.6,2470.1,1124.2z"/>
			<path class="st0" d="M2554.9,1153.6c-11.6-19.6-12.5-39.2,0.5-58.5c11.3-16.8,32.5-23.2,57-16.6c20.1,5.4,33.3,23.6,33.5,44.2
				c0.3,24.4-10.9,39.3-37.6,49.9c-3.1,0-6.2-0.1-9.3,0.1C2581,1174,2566.2,1167.9,2554.9,1153.6z M2624.3,1123.9
				c-0.2-15.9-13.3-28.7-28.9-28.1c-14.8,0.5-27.2,13.5-27.3,28.6c0,15.9,12.8,29.1,28.2,28.9
				C2611.5,1153.1,2624.5,1139.5,2624.3,1123.9z"/>
			<path class="st0" d="M3075.8,1077.1c1.3,0,2.6,0.1,3.9,0.1c16,0,16,0,17.1,15.5c-0.9,23-0.9,45.9,0.1,68.9c-1,3.6,0,7.8-3.5,10.5
				c-4.1-0.2-8.3-0.4-12.4-0.5c-4.8-5.1-9.5-10.1-14.3-15.2c-1.6-4.3-4.9-7.3-7.7-10.7c-5-10.1-12.4-18.3-21.1-29.1
				c0,11.8,0,20.5,0,29.1c0,5.3,0,10.6-0.1,15.9c-0.5,3.3-0.9,6.6-1.4,9.8c-0.4,0-0.9,0.1-1.3,0.1c-19,0.4-19,0.4-18.9-18.2
				c0.1-25.4,0.3-50.8,0.5-76.2c7.5,0,15.3-1.6,21.2,5c5.8,8.3,11.5,16.6,17.4,24.8c5.7,7.9,10.3,16.9,19,24.5
				C3076,1112,3073.5,1094.5,3075.8,1077.1z"/>
			<path class="st0" d="M2900.3,1108.6c6.4-12.9,14.2-24.4,28.7-29.5c17-5.9,44.7-4.6,60.1,15.3c12.7,16.5,12.9,45.4-1.3,61.4
				c-14.8,16.7-35.5,20.7-58.1,14.1c-2.9-0.9-5.7-2.4-8.5-3.5c-17.1-13-24.3-30-21.4-51.3
				C2900.2,1112.9,2900.2,1110.7,2900.3,1108.6z M2976.9,1124.8c0.2-15.6-11.6-28.4-26.5-28.9c-15.5-0.5-29.1,12.3-29.5,27.7
				c-0.4,16,11.8,29.2,27.4,29.6C2963.6,1153.7,2976.7,1140.7,2976.9,1124.8z"/>
			<path class="st0" d="M2757,1156.2c-7.7-13.3-12.4-26.9-8.8-42.8c8.1-36.2,51.2-50.5,79.2-26.1c5.4,4.7,9.3,10.6,13.7,16
				c1.6,9.7,1.6,9.6-7.1,10.1c-7.4,0.5-12.8-0.8-17.9-7.8c-8.5-11.7-27-11.9-37.8-2.1c-12.2,11.1-12.6,29.7-0.9,41.3
				c10,10.1,28.9,10.5,37.8-1c6.2-8.2,13.1-9.3,21.7-8.6c6.6,0.5,7.4,2,4.9,8.5c-7.4,19.5-33.1,33.5-54.1,29.3
				C2775.7,1170.8,2765.2,1165.6,2757,1156.2z"/>
			<path class="st0" d="M1885.3,1113.4c-3.7-11.7-15.2-19.2-26.9-17.4c-12.3,1.8-23.1,13.7-24,26.4c-1,13.4,7,25.6,19.6,29.5
				c10.3,3.2,20.7,0.9,26.4-6.9c7-9.8,15.5-10,25.2-9.6c0.9,0,1.8,0,2.6-0.1c0.3,1.7,0.6,3.4,0.9,5.1c-6.2,15.2-17.8,24.9-32.3,31.6
				c-7,0.3-13.7,2.8-20.9,1.7c-29.5-4.6-46.3-26.5-42.7-56.2c0.6-4.8,1.9-9.4,2.9-14.2c4-4.6,6.3-10.4,10.8-14.9
				c18.8-18.7,62.9-18.4,78.8,14.4c4.2,8.7,3.3,10.2-7,10.6c-4.4,0.2-8.8,0.1-13.2,0.1C1885.5,1113.5,1885.3,1113.4,1885.3,1113.4z"
				/>
			<path class="st0" d="M1762.8,1174.5c-10.3-1.4-18.9-7.3-28.4-10.7l-0.2-0.2c-2-4.9-4.3-9.6-5.7-14.6c-1.3-4.4,0.2-7.8,5.6-8.2
				c6.6-0.4,12.4-1,16.7,6.8c5,8.9,15.3,10.6,22.9,6c6.9-4.2,7.3-11.9,0.2-15.7c-5.4-2.9-11.4-4.5-17.3-6.3
				c-8.9-2.8-17.5-6.1-24.2-12.9c-1.4-3.4-2.9-6.8-4.3-10.2c0.9-19.5,7.2-28.1,23.4-31.7c19.5-4.3,36.9,2.1,45,16.6
				c1.3,2.3,2.3,4.7,3.5,7.1c0,5-2.6,7.3-7.5,6.9c-5.4-0.4-11.1,1.9-15-5.1c-4.3-7.6-12.4-9.8-20.2-7.5c-3.6,1.1-6.5,3.1-7.4,6.8
				c-0.9,4,1.7,6.6,4.8,8.6c3.7,2.4,8.1,3.4,12.3,4.6c8,2.3,16.2,4.1,23.2,9.1c14.4,10.3,15.6,27.4,2.8,39.5
				C1784.6,1171.7,1774,1174,1762.8,1174.5z"/>
			<path class="st0" d="M1699.2,1076.5c1.8,0.1,3.5,0.5,5.2,0.4c7.7-0.6,8.4,3.9,8.3,10c-0.1,6.1-2.3,8.9-8.6,8.7
				c-6.1-0.3-12.3-0.1-18.5,0c-12.5,0.1-13.2,0.5-13.2,9c-0.1,9.1,0.8,9.7,13.9,9.8c5.3,0,10.6,0.1,15.8,0c5.8-0.1,7.6,3,7.4,8.3
				c-0.1,5.1,0.1,10-7.1,9.9c-7.5-0.1-15,0.2-22.4,0c-7-0.2-7.8,4.1-7.6,9.5c0.2,5.2-1.1,11.2,7.2,11.2c7.5,0,15-0.1,22.4,0
				c11.3,0.1,12.3,0.8,12.4,8.6c0.1,8.3-1.6,9.6-13,9.7c-16.3,0.1-32.5,0-48.8,0c-0.6-1.6-1.2-3.1-1.8-4.7
				c0.1-24.4,0.2-48.9,0.4-73.3c0-3.1,0.1-6.1,0-9.2c-0.1-4.9,2.3-7.2,7.1-7.3c3.9-0.1,7.8-0.3,11.8-0.5
				C1679.8,1076.6,1689.5,1076.5,1699.2,1076.5z"/>
			<path class="st0" d="M2883.3,1111.1c-3.2,13.7-0.6,27.7-1.5,41.5c-0.2,2.6,0,5.2-0.1,7.8c-0.3,10.7-0.4,10.8-11,11.2
				c-2.6,0.1-5.2,0.1-7.8,0.1c-3.9-4-2.4-9.1-2.5-13.7c-0.3-21.8-0.4-43.6-0.5-65.4c0.1-1.3,0.2-2.6,0.4-3.8c0.7-3.9-2-10,3.7-10.9
				c6.5-1,14.6-4.7,19.4,4.1C2883.3,1091.7,2883.3,1101.4,2883.3,1111.1z"/>
			<path class="st0" d="M2943.7,1061.1c6.1-12.5,9.6-14.8,19.4-12.3c2,0.5,2.5,2.3,3,4c-2.4,4-4.8,8-7.3,12
				c-3.5,5.6-8.9,4.5-13.8,3.1C2941.9,1067,2943.3,1063.6,2943.7,1061.1z"/>
			<path class="st0" d="M1632.3,1171.6c-27.2-0.4-20.3,3.8-34.7-19.8c-3-4.9-5.7-10-13-9.3c-4.1,0.4-6.8,1.7-6.8,6.2
				c-0.1,5.3-0.2,10.6-0.1,15.9c0.1,6.2-3.8,7.3-8.7,7c-4.9-0.4-11.3,1.7-12.3-6.3c-0.2-1.7-0.2-3.5-0.2-5.3c0-23.4-0.1-46.8,0-70.1
				c0-12,0.5-12.7,12.8-12.7c12.7,0,25.6-1.3,38.2,1.9c24.4,6.1,33,34.6,15.9,53.1c-8,8.6-7.9,8.5-2.1,18.8
				C1625,1157.6,1631.2,1163.3,1632.3,1171.6c-0.1,0,0.4,0.6,0.4,0.6L1632.3,1171.6z M1577.6,1108.8
				C1577.7,1108.8,1577.7,1108.8,1577.6,1108.8c0.1,3.5-0.1,7,0.1,10.6c0.1,2.4,1.5,4.3,4,4.6c7,0.6,14.2,1.5,20.7-1.9
				c5.8-2.9,7.5-8.2,7-14.5c-0.6-6.1-4.1-9.3-9.9-10.8c-5.2-1.4-10.4-1.3-15.7-1.3c-4.5,0-6.2,2.5-6.2,6.7
				C1577.6,1104.4,1577.6,1106.6,1577.6,1108.8z"/>
			<path class="st0" d="M2011.3,1169.3c-5.4,3.6-9.9,2-14.2,2.3c-5.5,0.3-9.6-2.1-10.9-7.6c-1.6-7.2-6.5-8.6-12.9-8.3
				c-4.4,0.2-8.9,0.3-13.2-0.1c-9-0.7-16.4,0.1-19.7,10.7c-1.7,5.5-15.5,7.7-19.7,4c-3.3-3-1.4-6.6-0.2-9.8
				c5.8-14.8,11.7-29.6,17.5-44.3c4.4-11.1,8.5-22.3,13.3-33.2c3.6-8.2,20.8-9.4,24.2-1.4
				C1988.1,1110.7,1999.5,1140.2,2011.3,1169.3z M1963,1108c-3.3,8.3-6.2,15.1-8.7,22.1c-1,2.8-1.9,6.6,2.6,7.3
				c5.6,0.9,12.3,2.6,16.5-1.1c4.3-3.7-0.2-8.9-1.9-13.2C1969.5,1118.4,1968.8,1113,1963,1108z"/>
			<path class="st0" d="M2422.5,1171.7c-6.5,1.1-11.6-1.6-13.7-9.5c-1.3-5-5-6.8-10-6.6c-5.7,0.2-11.5,0.3-17.2-0.1
				c-8.1-0.5-14.4,0.5-17.2,9.9c-1.7,5.8-17.8,8.7-21.8,4.7c-2.4-2.4-0.6-4.9,0.4-7.3c7.1-18,14.3-36,21.4-54
				c2.9-7.4,6-14.7,8.7-22.1c2.3-6.5,5.6-10.2,13.3-10.1c7.5,0.1,12.4,1.9,15.3,9.5c8.5,22.2,17.5,44.2,26.3,66.3
				c1.1,2.9,2.4,5.7,3.4,8.6C2434.8,1170.2,2433.8,1171.6,2422.5,1171.7z M2388.6,1107.1c-5.9,7.7-7.6,14.2-10.2,20.2
				c-1.2,2.7-2.8,5.6-1.7,9.7c5.1,1.7,10.8,0.8,16.4,0.8c4.7,0,6.4-2.4,4.7-6.8C2395.2,1123.6,2392.3,1116.4,2388.6,1107.1z"/>
			<path class="st0" d="M2661.7,1092.6c0.1-2.2,0.4-4.4,0.3-6.6c-0.3-7,3.6-9.2,9.9-9c9.7,0.2,19.4-0.3,29.1,0.2
				c9.4,0.5,18.2,3,25.4,9.7c18,17,12.4,46.2-10.5,55.4c-7.5,3-15.4,3.6-23.4,3.3c-5.5-0.2-8.2,2.1-8,7.8c0.1,2.6,0.1,5.3-0.1,7.9
				c-0.5,9.4-1.6,10.3-11.1,10.3c-9.8,0-12.1-1.6-10.9-11.6c2.4-19-0.6-37.8-0.6-56.7C2661.8,1099.7,2661.7,1096.2,2661.7,1092.6z
				 M2694.3,1126.9c14,0.1,21.6-6.7,20.1-17.9c-1-8.1-6.1-11.6-18.5-12.9c-9.2-1-10.9,0.4-11.3,9.3c-0.2,3.9-0.2,7.9-0.1,11.8
				C2684.8,1126.2,2685.6,1126.8,2694.3,1126.9z"/>
			<path class="st0" d="M2173.7,1077.2c2.6,3.7,0.6,7.7,0.5,11.5c-0.1,5.1-2.8,6.8-7.6,6.7c-8.3-0.2-16.7,0.1-25-0.1
				c-7-0.2-7.7,4-7.6,9.4c0.1,5.2,0.3,9.9,7.4,9.7c7.5-0.1,14.9,0.1,22.4-0.1c7.1-0.2,7.4,4.4,7.4,9.6c0,4.9-0.7,8.7-7,8.7
				c-5.7,0-11.4,0.4-17.1,0.6c-5-0.4-10.6-2.2-11.7,5.7c-1.2,8.2,0.4,10.9,8.7,13.5c7.8,1.9,15.7,0.9,23.6,0.9
				c6.3,0,8.5,2.7,8.4,8.7c-0.1,5.7-1.5,9.4-8,9.5c-9.7,0.1-19.3,0.2-29,0.4c-4.8-0.1-9.5-0.2-14.3-0.3c-11.3-0.2-11.3-0.2-12-11.3
				c-0.1-1.3-0.2-2.6-0.3-3.9c0.7-23,0.7-46-0.1-68.9c-0.2-6.8,2.2-10.4,9.9-10.2C2139.5,1077.6,2156.6,1077.2,2173.7,1077.2z"/>
			<path class="st0" d="M2230.3,1105.3c-3-9.3-10.5-16.2-13.2-26.8c5.9-2.8,12-1.4,17.8-1.5c4.8-0.1,6.6,3.7,8.6,7.2
				c5.3,9.6,10.6,19.3,15.6,28.5c5.2,0.6,5.5-3.3,6.8-5.7c4.3-7.7,8.4-15.5,12.5-23.3c1.9-3.7,4.4-6.8,9-6.5
				c5.1,0.3,11.7-2.6,14.9,2.1c3,4.4-2.4,8.7-4.6,12.8c-6.1,11.2-12.1,22.6-19,33.3c-5.6,8.6-8.2,17.4-7.3,27.5
				c0.2,2.6,0.1,5.3,0,7.9c-0.2,3.8,1,8.5-4.1,10.1c-4.7,1.4-9.7,1.6-14.3-0.3c-2.8-1.1-2.6-4.3-2.6-7c0-5.7-0.1-11.5,0-17.2
				c0.1-5.5-0.7-10.6-4.7-14.6C2241.1,1122.5,2236.4,1113.5,2230.3,1105.3z"/>
			<path class="st0" d="M2098.4,1087.3c-3,10-3,10.1-13.1,10.2c-19.2,0.3-17.7-1.7-17.8,18c0,15.4,0.2,30.9,0,46.3
				c-0.1,8.3-1.8,9.6-10.4,9.6c-8.7,0-10.6-1.3-10.7-9.4c-0.2-17.6,0.1-35.3-0.1-52.9c-0.1-11-0.3-11.1-11-11.4
				c-2.6-0.1-5.3,0.1-7.9,0c-9.7-0.3-10.5-1-10.5-10.6c0-9,0.6-9.6,9.7-10c4.8-0.2,9.7-0.2,14.5-0.3c17.7,0.1,35.4,0.2,53.1,0.3
				c0.5,0.3,1.1,0.4,1.6,0.1C2096.7,1080.6,2097.5,1084,2098.4,1087.3z"/>
		</g>
	</g>
</g>
</svg>
